<svg xmlns="http://www.w3.org/2000/svg" width="34.965" height="49.728" viewBox="0 0 34.965 49.728">
  <g id="placeholder" transform="translate(-76)">
    <g id="Group_299" data-name="Group 299" transform="translate(76)">
      <g id="Group_298" data-name="Group 298" transform="translate(0)">
        <path id="Path_122" data-name="Path 122" d="M93.482,0A17.486,17.486,0,0,0,78.61,26.675L92.487,49.039a1.457,1.457,0,0,0,1.238.689h.012a1.457,1.457,0,0,0,1.238-.708L108.5,26.439A17.486,17.486,0,0,0,93.482,0ZM106,24.943,93.7,45.472,81.086,25.14a14.578,14.578,0,1,1,24.912-.2Z" transform="translate(-76)" fill="#63c0ff"/>
      </g>
    </g>
    <g id="Group_301" data-name="Group 301" transform="translate(84.741 8.741)">
      <g id="Group_300" data-name="Group 300">
        <path id="Path_123" data-name="Path 123" d="M174.741,90a8.741,8.741,0,1,0,8.741,8.741A8.751,8.751,0,0,0,174.741,90Zm0,14.588a5.847,5.847,0,1,1,5.837-5.847A5.851,5.851,0,0,1,174.741,104.588Z" transform="translate(-166 -90)" fill="#63c0ff"/>
      </g>
    </g>
  </g>
</svg>
