<svg xmlns="http://www.w3.org/2000/svg" width="47.18" height="47.272" viewBox="0 0 47.18 47.272">
  <path id="Path_121" data-name="Path 121" d="M43.505,32.45l-6.17-6.17A4.1,4.1,0,0,0,30.5,27.822a4.2,4.2,0,0,1-4.848,2.644C21.247,29.365,15.3,23.635,14.2,19.007a3.994,3.994,0,0,1,2.644-4.848,4.1,4.1,0,0,0,1.543-6.832l-6.17-6.17a4.4,4.4,0,0,0-5.95,0L2.075,5.344c-4.187,4.407.441,16.087,10.8,26.445s22.037,15.206,26.445,10.8L43.505,38.4A4.4,4.4,0,0,0,43.505,32.45Z" transform="translate(1.018 1.5)" fill="none" stroke="#63c0ff" stroke-width="3"/>
</svg>
