<svg xmlns="http://www.w3.org/2000/svg" width="46.541" height="34.434" viewBox="0 0 46.541 34.434">
  <path id="Path_120" data-name="Path 120" d="M44.154,85.333H2.387A2.535,2.535,0,0,0,0,87.982v29.137a2.536,2.536,0,0,0,2.387,2.649H44.154a2.536,2.536,0,0,0,2.387-2.649V87.982A2.536,2.536,0,0,0,44.154,85.333Zm-.9,1.986-18.615,15.5a2.292,2.292,0,0,1-2.746,0L3.282,87.319Zm-9.944,16.518,10.144,13.906c.01.014.023.025.033.037H3.049c.011-.013.023-.023.033-.037l10.144-13.906a1.069,1.069,0,0,0-.133-1.4.836.836,0,0,0-1.258.147L1.79,116.357v-27.8L20.824,104.4a3.93,3.93,0,0,0,4.893,0L44.751,88.561v27.8l-10.044-13.77a.836.836,0,0,0-1.258-.147A1.069,1.069,0,0,0,33.315,103.837Z" transform="translate(0 -85.333)" fill="#63c0ff"/>
</svg>
